inDegrees=no
num_controls=7
num_derivatives=13
num_iterations=103
num_multipliers=7
num_parameters=0
num_slacks=7
num_states=26
objective=0.516979
objective_accelerations=0.039809
objective_balance=0.002220
objective_effort=0.044251
objective_height=0.419051
objective_ligament=0.011648
solver_duration=1370.470078
status=Solve_Succeeded
success=true
DataType=double
version=3
OpenSimVersion=4.5
endheader
time	/jointset/ground_pelvis/pelvis_tilt/value	/jointset/ground_pelvis/pelvis_tx/value	/jointset/ground_pelvis/pelvis_ty/value	/jointset/hip_l/hip_flexion_l/value	/jointset/hip_l/hip_adduction_l/value	/jointset/hip_l/hip_rotation_l/value	/jointset/back/lumbar_extension/value	/jointset/patellofemoral_l/patellar_flexion_l/value	/jointset/knee_l/knee_flexion_l/value	/jointset/knee_l/knee_adduction_l/value	/jointset/knee_l/knee_rotation_l/value	/jointset/ankle_l/ankle_angle_l/value	/jointset/subtalar_l/subtalar_angle_l/value	/jointset/ground_pelvis/pelvis_tilt/speed	/jointset/ground_pelvis/pelvis_tx/speed	/jointset/ground_pelvis/pelvis_ty/speed	/jointset/hip_l/hip_flexion_l/speed	/jointset/hip_l/hip_adduction_l/speed	/jointset/hip_l/hip_rotation_l/speed	/jointset/back/lumbar_extension/speed	/jointset/patellofemoral_l/patellar_flexion_l/speed	/jointset/knee_l/knee_flexion_l/speed	/jointset/knee_l/knee_adduction_l/speed	/jointset/knee_l/knee_rotation_l/speed	/jointset/ankle_l/ankle_angle_l/speed	/jointset/subtalar_l/subtalar_angle_l/speed	/forceset/tau_hip_flexion_l	/forceset/tau_hip_adduction_l	/forceset/tau_hip_rotation_l	/forceset/tau_knee_flexion_l	/forceset/tau_ankle_angle_l	/forceset/tau_subtalar_angle_l	/forceset/tau_lumbar_extension	lambda_cid13_p0	lambda_cid13_p1	lambda_cid13_p2	lambda_cid13_p3	lambda_cid13_p4	lambda_cid13_p5	lambda_cid14_p0	/jointset/ground_pelvis/pelvis_tilt/accel	/jointset/ground_pelvis/pelvis_tx/accel	/jointset/ground_pelvis/pelvis_ty/accel	/jointset/hip_l/hip_flexion_l/accel	/jointset/hip_l/hip_adduction_l/accel	/jointset/hip_l/hip_rotation_l/accel	/jointset/back/lumbar_extension/accel	/jointset/patellofemoral_l/patellar_flexion_l/accel	/jointset/knee_l/knee_flexion_l/accel	/jointset/knee_l/knee_adduction_l/accel	/jointset/knee_l/knee_rotation_l/accel	/jointset/ankle_l/ankle_angle_l/accel	/jointset/subtalar_l/subtalar_angle_l/accel	gamma_cid13_p0	gamma_cid13_p1	gamma_cid13_p2	gamma_cid13_p3	gamma_cid13_p4	gamma_cid13_p5	gamma_cid14_p0
1.5	-0.01364384135094484	-0.02615819883096016	0.8683407296687763	0.633849765305704	-0.3109055516738407	-0.1787266421024071	-0.7869569429572738	0.6422160257172895	0.6422160257173287	-0.1036784937509744	-0.1742324284465595	0.07148245947188406	0.007935573540041044	0.395480153571065	0.2800781225686365	0.3449409537595045	-1.875260358298602	0.08811931084584239	-0.5269083447079798	0.8361065456828486	-1.63512751143078	-1.635127511430863	-0.1401972092974229	-0.003564384695821701	-0.2453010984015341	0.01616280415003387	-0.2012581400043981	0.03208783646862446	-0.004697194333855829	-0.1954785549562863	0.1057100956979619	0.02875825161571168	0.2779225244845626	-9.310635764608911	-12.7089984786592	3.684445184436969	-8.072666376412805	-673.0568254748815	-65.48197746108777	-19.83959900671148	-0.1742732130464581	0.5923325392440015	-0.4968074493597427	-0.5387085710271109	0.2947636627411874	-0.2626076132134506	1.734516443574387	-0.8562011560489023	-0.8562011560488716	-0.3871834413008107	0.04625178789743674	-0.1580468806049262	0.249469647041311	-3.266403716620414e-09	1.297042224432757e-06	2.212107853806369e-07	2.056424566054171e-07	5.82313560812751e-08	1.768221385611216e-07	1.260224350267172e-07
1.51	-0.00969722649231276	-0.02332790427291902	0.8717645540695201	0.6150717760513267	-0.3100103128972589	-0.1840084526426353	-0.7785103815921668	0.6258253661573223	0.6258253661572932	-0.1051004899619246	-0.1742666779766464	0.06902281636161588	0.008109341233905375	0.3938781479646125	0.285967011844656	0.3397501126728975	-1.880144181920672	0.09088797367324548	-0.5292789092231073	0.8530975379447004	-1.642648728400291	-1.642648728400264	-0.1442669665008347	-0.003231235352328572	-0.2464861894741927	0.01859230988169324	-0.1948680759170749	0.03132293684610846	-0.004539488584728813	-0.1915548900462703	0.1040965643106122	0.02820206104528053	0.27183207052408	-9.601632837032728	-12.49693204701104	3.742516098678764	-7.951762650987519	-669.1172384502477	-65.50526999693808	-20.31799873986823	-0.1478724660235518	0.5851268690165895	-0.5412757752122701	-0.4342315589956275	0.261705166244352	-0.1979819444196974	1.665162208126027	-0.6467478432464213	-0.6467478432293298	-0.4264495467235809	0.03499553168160314	-0.07751671279681922	0.2397721812035126	-2.678802565806288e-09	1.022934369318187e-06	1.646263080303251e-07	1.567948076695354e-07	8.157619119263749e-08	1.383460060179306e-07	9.796113820369304e-08
1.52	-0.005765573336097657	-0.02043912887266797	0.8751342593920171	0.5962507461004738	-0.3090886299776716	-0.1893087090428124	-0.7698971559863236	0.6093701612524239	0.6093701612524572	-0.1065650992822198	-0.1742959662085619	0.06655556704217686	0.008307420214081204	0.3924878130950933	0.2917742910106201	0.3341171381101579	-1.883868497590554	0.09340813944086281	-0.5305975166885591	0.869439393831913	-1.648036580403594	-1.648036580403459	-0.1487198311787556	-0.002572125044572941	-0.2468223402349078	0.02102506141234955	-0.1884780118297968	0.03055803722348324	-0.004381782834711313	-0.1876312251363738	0.1024830329231825	0.02764587047469012	0.265741616563602	-9.898795770692738	-12.28328677366602	3.799765310660768	-7.828145257298872	-665.2773233397144	-65.54305135863785	-20.77338880092279	-0.1319390656601862	0.5760105172330242	-0.5852341445862135	-0.3068069805897815	0.2450642507840852	-0.05221620327833412	1.604689168646446	-0.4295281628075702	-0.429528162807581	-0.4638049362026401	0.1114439807499368	0.01174118178392339	0.2501188068407372	-1.186337881982717e-08	9.927467991302225e-07	2.033721949100542e-07	1.520934743488472e-07	8.695538950873837e-08	1.270677798206071e-07	8.764965050261082e-08
1.53	-0.001848608275230416	-0.01749308719935585	0.8784456054256203	0.5773996616682665	-0.3081417122289656	-0.1946210267132102	-0.7611238278698047	0.5928696386711053	0.5928696386710579	-0.1080723713156135	-0.1743189340465807	0.06408780862957431	0.008530798594191152	0.3907667048221201	0.2973793076909788	0.3280962780681509	-1.886019288506674	0.09607026525434788	-0.5320036280523814	0.8850990616665858	-1.651923615380708	-1.651923615380597	-0.1524651100020801	-0.00207979287674387	-0.2467258812318539	0.02375411160346832	-0.1798634669770616	0.02919103777750262	-0.004459861436838554	-0.186452704743762	0.1033810266241393	0.02657609705776167	0.2579001122191099	-9.465544389405272	-11.94562271083759	3.804277661564835	-7.590945070738798	-661.9062703113726	-65.67348304338356	-21.2027430654422	-0.2129874518714744	0.5445802281953666	-0.6188673338779832	-0.1198701484929	0.2907715109183296	-0.2053801253308374	1.52753041966257	-0.3466632481299871	-0.346663248132983	-0.2892124338342105	0.009423847583003695	0.009153783360001836	0.2995614434639597	-3.143089356648514e-08	1.221724531676774e-06	3.434065937842007e-07	1.942976013693016e-07	7.324609872987411e-08	1.446873291157675e-07	9.61973349935917e-08
